# xmcd
# Copyright (C) 1995-1998 Ti Kan
#
# Track frame offsets:
#       150
#       10238
#       26137
#       40475
#       54767
#       84109
#       103151
#       119799
#       137173
#       157371
#
# Disc length: 2417 seconds
#
# Revision: 0
# Processed by: cddbd v1.5.2PL0 Copyright (c) Steve Scherf et al.
# Submitted via: CD-Import v1.0
#
DISCID=87096f0a
DTITLE=Tasteless - Empty Buildings Standing Still
DYEAR=09
DGENRE=
TTITLE0=Revelations
TTITLE1=Enemy
TTITLE2=Rebirth
TTITLE3=Silent
TTITLE4=Eight
TTITLE5=Son
TTITLE6=End Of Negotiations
TTITLE7=The Spell
TTITLE8=The Heart
TTITLE9=This Time
EXTD=
EXTT0=
EXTT1=
EXTT2=
EXTT3=
EXTT4=
EXTT5=
EXTT6=
EXTT7=
EXTT8=
EXTT9=
PLAYORDER=
